<svg xmlns="http://www.w3.org/2000/svg" viewBox="0 0 512 512" width="512" height="512">
	<style>
		tspan { white-space:pre }
		.shp0 { fill: #ffd2a7;stroke: #ff0000;paint-order:stroke fill markers;stroke-width: 74 } 
		.shp1 { fill: #ffd2a7 } 
		.shp2 { fill: #ffc186 } 
		.shp3 { fill: #f09b59 } 
	</style>
	<path id="Layer copy" class="shp0" d="M415.5 141.1L407.32 120.02L329.1 46.27L218.93 96.35L208.48 169.49L241.56 213.6L314.33 213.6L314.33 269.47C313.01 268.35 311.67 267.25 310.29 266.19C291.16 251.51 268.27 243.75 244.1 243.75C219.92 243.75 197.03 251.51 177.9 266.19C174.83 268.55 171.91 271.08 169.12 273.74C146.11 254.46 117.03 243.75 86.32 243.75L46 243.75L46 466.32L118.16 445.2C160.41 459.46 204.39 466.57 248.33 466.57C299.53 466.57 350.68 456.92 398.99 437.68L467 410.59L467 402.22C467 312.26 451.6 234.17 415.5 141.1Z" />
	<path id="Layer" class="shp1" d="M415.5 141.1L407.32 120.02L329.1 46.27L218.93 96.35L208.48 169.49L241.56 213.6L314.33 213.6L314.33 269.47C313.01 268.35 311.67 267.25 310.29 266.19C291.16 251.51 268.27 243.75 244.1 243.75C219.92 243.75 197.03 251.51 177.9 266.19C174.83 268.55 171.91 271.08 169.12 273.74C146.11 254.46 117.03 243.75 86.32 243.75L46 243.75L46 466.32L118.16 445.2C160.41 459.46 204.39 466.57 248.33 466.57C299.53 466.57 350.68 456.92 398.99 437.68L467 410.59L467 402.22C467 312.26 451.6 234.17 415.5 141.1Z" />
	<path id="Layer" class="shp2" d="M415.5 141.1L407.32 120.02L329.1 46.27L256.5 79.28L256.5 213.6L314.33 213.6L314.33 269.47C313.01 268.35 311.67 267.25 310.29 266.19C294.47 254.05 276.07 246.65 256.5 244.45L256.5 466.49C304.96 465.51 353.25 455.9 398.99 437.68L467 410.59L467 402.22C467 312.26 451.6 234.17 415.5 141.1Z" />
	<path id="Layer" class="shp2" d="M300.16 136.27L276.16 130.58L272.79 144.8L212.01 144.8L208.49 169.47L292.29 169.47L300.16 136.27Z" />
	<path id="Layer" class="shp3" d="M276.16 130.58L272.79 144.8L256.5 144.8L256.5 169.47L292.29 169.47L300.16 136.27L276.16 130.58Z" />
</svg>